<svg width="64" height="31" viewBox="0 0 64 31" fill="none" xmlns="http://www.w3.org/2000/svg">
<path d="M1.27776 11.8548L13.5756 9.79353L14.5181 26.0145L5.62985 28.1573L1.27776 11.8548ZM7.82064 24.7076L11.9829 23.3569L11.4486 13.4676L4.74959 15.1129L7.82064 24.7076ZM17.8482 14.4064L14.5622 15.2184L14.5003 12.3553L22.411 11.0816L22.7474 13.0889L19.9527 13.8708L22.1785 25.4358L18.8245 25.998L17.8482 14.4064ZM31.3515 9.63534L34.3288 23.1903L33.156 23.6742L30.9752 19.5467L27.0245 20.6007L26.7061 24.4679L25.7955 24.49L22.5173 10.6981L31.3515 9.63534ZM26.5815 17.9582L30.2151 17.5059L28.1565 12.7047L26.8312 13.0575L26.5815 17.9582ZM28.2805 4.71657L31.6274 5.6707L27.1362 8.48717L26.0766 7.77659L28.2805 4.71657ZM42.3134 7.798L41.0434 22.3522L37.4903 22.8171L32.336 9.20911L34.6736 8.8173L38.495 19.1483L39.2572 19.0205L39.8233 8.21537L42.3134 7.798ZM42.6541 7.63641L44.5088 7.16881L47.6729 21.2149L44.8269 21.5352L42.6541 7.63641ZM45.5918 6.93503L56.0603 5.1804L56.8862 18.9915L49.2556 20.8451L45.5918 6.93503ZM51.1631 17.887L54.6817 16.7487L54.2546 8.27818L48.5634 9.70228L51.1631 17.887Z" fill="#E4E4E4"/>
</svg>
